<svg version="1.1" viewBox="0.0 0.0 960.0 960.0" fill="none" stroke="none" stroke-linecap="square" stroke-miterlimit="10" xmlns:xlink="http://www.w3.org/1999/xlink" xmlns="http://www.w3.org/2000/svg"><clipPath id="p.0"><path d="m0 0l960.0 0l0 960.0l-960.0 0l0 -960.0z" clip-rule="nonzero"/></clipPath><g clip-path="url(#p.0)"><path fill="#000000" fill-opacity="0.0" d="m0 0l960.0 0l0 960.0l-960.0 0z" fill-rule="evenodd"/><path fill="#990000" d="m802.4108 245.47174c5.1605225 8.136658 7.7408447 21.036896 7.7408447 38.700745c0 31.310211 -7.07489 60.312286 -21.224731 87.006226c-14.049438 26.593628 -32.26355 49.92575 -54.642334 69.99637c-22.278381 20.070618 -43.30243 34.922913 -63.07202 44.556824c-14.049438 -7.0247498 -32.464233 -10.537079 -55.244446 -10.537079c-17.894714 0 -35.029724 2.7495422 -51.40497 8.248718c20.91681 -27.195831 40.61078 -51.621674 59.08203 -73.27759c26.292542 -30.7081 51.43097 -57.45224 75.415405 -80.23239c23.984436 -22.780182 48.219727 -43.3526 72.70593 -61.717224c7.3258057 -5.218384 14.400696 -10.185883 21.224731 -14.902466c6.494446 -4.423752 9.634277 -7.0378113 9.419556 -7.8421326zm-225.1325 269.4234c0.62371826 0.026367188 1.3273926 0.03955078 2.111084 0.03955078c-2.4179077 0 -3.121582 -0.013183594 -2.111084 -0.03955078zm52.23755 -374.77966c-45.86145 0 -91.020386 6.3724365 -135.4769 19.11728c-44.35614 12.644516 -86.002716 29.855087 -124.93979 51.63173c-38.937042 21.776642 -73.358185 46.664246 -103.26346 74.66278c-29.905273 27.998566 -53.538467 57.853607 -70.89957 89.56525c-17.361115 31.711609 -26.041656 63.42325 -26.041656 95.13483c0 27.296082 8.931442 47.165985 26.794312 59.609833c17.963226 12.343445 37.481934 18.515137 58.556107 18.515137c37.13069 0 74.51228 -7.8776855 112.14473 -23.633179c37.632477 -15.755463 72.15399 -37.73282 103.564545 -65.93204c31.410583 -28.299622 56.749786 -61.767395 76.01761 -100.40338c19.267761 -38.73633 28.901672 -81.08539 28.901672 -127.047165c0 -16.257217 -6.4727783 -24.385834 -19.418335 -24.385834c-8.730713 0 -13.999268 2.7095337 -15.805603 8.128616c-1.8063965 5.3187256 -3.4120483 11.440262 -4.8169556 18.364624c-5.118042 37.73282 -17.712341 73.25784 -37.78302 106.5751c-20.070648 33.31726 -44.205597 62.770935 -72.40485 88.36099c-28.098907 25.590088 -56.95047 45.510193 -86.55466 59.760345c-29.503876 14.250153 -55.94693 21.375244 -79.329254 21.375244c-14.149796 0 -25.590057 -3.0607605 -34.3208 -9.182343c-8.730728 -6.1215515 -13.096085 -15.705292 -13.096085 -28.75119c0 -18.66568 7.7272034 -40.542664 23.181595 -65.63098c15.554749 -25.088318 36.929993 -50.82892 64.1257 -77.2218c27.296082 -26.392883 57.90384 -50.728546 91.82321 -73.00696c33.919403 -22.378754 68.44092 -39.990738 103.564545 -52.835953c20.371735 -7.5264893 42.098175 -13.397156 65.17941 -17.612c23.081238 -4.2148285 44.707397 -6.3222504 64.87836 -6.3222504c37.130737 0 69.59497 4.1646576 97.39282 12.493973c27.797852 8.32933 44.607056 15.454407 50.42749 21.375244c-30.105957 16.056503 -71.10022 45.008408 -122.98285 86.8557c-51.88263 41.746918 -106.82605 95.83728 -164.8302 162.27112c-50.778748 56.49884 -94.18152 103.8656 -130.20831 142.10016c-35.926483 38.23456 -66.38367 69.14337 -91.37164 92.72638c-24.887589 23.582947 -45.91159 41.295288 -63.07199 53.137024c-17.060059 11.841614 -32.213394 19.769531 -45.460022 23.783691c-13.146271 3.9137573 -26.543434 5.8706665 -40.191467 5.8706665c-22.17807 0 -38.937065 -3.5625 -50.27697 -10.687622c-4.3175545 -2.7510986 -7.813183 -5.6621704 -10.486927 -8.733154l3.8146973E-5 0c0.23509216 0.0015869141 0.46923065 0.0024414062 0.7024498 0.0024414062c10.637451 0 19.920143 -3.612732 27.848022 -10.838196c7.9278946 -7.225403 11.891853 -15.805603 11.891853 -25.74054c0 -12.845276 -4.2148285 -21.927246 -12.644501 -27.24591c-8.329308 -5.3187866 -16.457924 -7.9780884 -24.385838 -7.9780884c-12.042389 0 -24.486202 3.9137573 -37.331406 11.741333c-12.744872 7.8275146 -19.11729 21.375244 -19.11729 40.643005c0 22.880554 10.98868 41.84729 32.966038 56.90027c21.97736 15.05304 47.71796 22.579529 77.22182 22.579529c17.361115 0 34.72223 -0.9534302 52.08333 -2.8601074c17.361115 -1.9066772 34.922928 -6.4225464 52.685455 -13.547668c49.674835 -20.472046 101.557465 -53.839478 155.64786 -100.102295c51.700714 -44.23285 104.771545 -102.30408 159.21252 -174.21368l0 0c2.5177612 5.4296875 7.0496826 10.213379 13.595764 14.351013c10.637451 6.623291 24.285461 9.934937 40.94409 9.934937c15.354065 0 30.908813 -1.50531 46.664246 -4.515869c15.382935 -2.9208374 27.129272 -5.65271 35.239014 -8.195679l0 0c-0.411438 1.3398438 -0.61712646 5.1254883 -0.61712646 11.356812c0 31.611267 -6.171753 61.115112 -18.515198 88.511536c-12.343445 27.396423 -28.349792 51.48114 -48.018982 72.25427c-19.66925 20.773132 -40.492554 36.87982 -62.46991 48.32007c-21.977356 11.440308 -42.499573 17.1604 -61.56671 17.1604c-20.572418 0 -33.618317 -2.559021 -39.137756 -7.677002c-5.519409 -5.118042 -8.279144 -10.08551 -8.279144 -14.902466c0 -12.443787 5.9208374 -26.443054 17.762543 -41.997803c11.841675 -15.55481 27.898193 -30.607788 48.169525 -45.158936c20.271393 -14.651611 42.24875 -26.593689 65.9321 -35.82611c23.783691 -9.232544 46.513733 -13.848755 68.19 -13.848755c18.966797 0 28.450134 -6.9243774 28.450134 -20.773071c0 -13.246643 -7.9780884 -19.869934 -23.934204 -19.869934c-30.106018 0 -59.760376 5.720093 -88.963196 17.16034c-29.102417 11.339966 -55.4953 25.891174 -79.17868 43.653687c-23.68335 17.66217 -43.001343 36.77948 -57.95398 57.351868c-14.852295 20.472046 -22.278412 40.091125 -22.278412 58.857117c0 14.952698 6.623291 29.453735 19.869934 43.503113c13.346985 14.0494995 36.528564 21.074219 69.5448 21.074219c34.22043 0 67.286804 -5.7703857 99.19916 -17.310974c31.912354 -11.540588 60.613342 -27.195679 86.10309 -46.96527c25.590088 -19.869934 46.112305 -42.650146 61.56671 -68.340515c15.454407 -25.69043 23.18158 -52.685486 23.18158 -80.98505c0 -43.45294 -7.8776855 -72.2041 -23.633179 -86.2536c18.465027 -7.5264893 41.897522 -22.278412 70.297424 -44.255768c28.500305 -21.977356 51.631775 -46.764587 69.39429 -74.361725c17.762512 -27.69748 26.643799 -56.348297 26.643799 -85.952515c0 -44.155396 -10.737793 -76.368774 -32.21344 -96.64014c10.436768 -5.4190826 23.984436 -10.286209 40.643066 -14.601395c16.758972 -4.3151855 31.81195 -7.426132 45.158997 -9.332855c13.346985 -1.9066925 20.020447 -7.927887 20.020447 -18.063568c0 -12.644501 -9.784424 -18.966751 -29.353333 -18.966751c-14.852295 0 -32.31372 2.7095337 -52.3844 8.128601c-19.970276 5.4190674 -39.539185 12.744858 -58.706604 21.977356c-41.84729 -32.113037 -105.069885 -48.16954 -189.6676 -48.16954z" fill-rule="evenodd"/></g></svg>