<svg version="1.1" viewBox="0.0 0.0 854.3989501312336 123.83989501312335" fill="none" stroke="none" stroke-linecap="square" stroke-miterlimit="10" xmlns:xlink="http://www.w3.org/1999/xlink" xmlns="http://www.w3.org/2000/svg"><clipPath id="p.0"><path d="m0 0l854.3989 0l0 123.8399l-854.3989 0l0 -123.8399z" clip-rule="nonzero"/></clipPath><g clip-path="url(#p.0)"><path fill="#000000" fill-opacity="0.0" d="m0 0l854.3989 0l0 123.8399l-854.3989 0z" fill-rule="evenodd"/><path fill="#990000" d="m136.05356 51.397675c0 0 0 0 0 0l0 0c0 0 0 0 0 0zm41.510193 4.1698875c0 0 0 0 0 7.6293945E-6l-1.5258789E-5 0c1.5258789E-5 -7.6293945E-6 1.5258789E-5 -7.6293945E-6 1.5258789E-5 -7.6293945E-6zm-47.64853 -3.24514c0.5410919 0 0.988327 0.121471405 1.3417053 0.3644104c0.3644104 0.23189926 0.5466156 0.5742264 0.5466156 1.0269775c0 0.7840347 -0.276062 1.7337112 -0.82821655 2.8490334c-0.54107666 1.1153221 -1.1539612 2.1975136 -1.838623 3.2465706c-0.5852814 0.68465424 -1.220253 1.4466057 -1.9048843 2.2858505c-0.6846695 0.8282089 -1.4245224 1.7171478 -2.2196045 2.6668282c-4.7705 5.66494 -8.80114 9.662422 -12.091888 11.992439c-3.2907486 2.330017 -5.8250732 3.4950333 -7.6029816 3.4950333c-0.4306717 0 -0.6460037 -0.33128357 -0.6460037 -0.9938507c0 -1.3582611 0.50795746 -3.1085358 1.5239105 -5.2508316c1.0159454 -2.1533356 2.7220612 -4.6655655 5.118347 -7.536682c4.2294083 -5.0134125 8.05574 -8.624393 11.479004 -10.832951c3.4343262 -2.2085495 5.808548 -3.312828 7.1226196 -3.312828zm-5.2674255 28.026356c0 0 0 0 0 0l0 0c0 0 0 0 0 0zm2.9815598 -72.60046c-1.3141022 0 -3.191391 0.70121574 -5.631836 2.1036463c-2.4404755 1.4024296 -5.598709 3.6717167 -9.474739 6.8078623c-3.8760223 3.1250992 -8.696213 7.3710423 -14.460564 12.7378235c-4.3067017 4.085823 -8.155136 7.7630615 -11.545265 11.031719c-3.3901367 3.2686539 -6.5042114 6.3495865 -9.342224 9.24279c-2.8380203 2.8932037 -5.6152725 5.7919235 -8.33181 8.696175c-2.5557098 2.7434425 -5.214882 5.6741066 -7.9774857 8.791996c0.5197983 -0.86642456 1.0587502 -1.7597046 1.6168251 -2.6798325c2.2637672 -3.7434921 4.6821404 -7.6967964 7.255131 -11.8599205c2.584015 -4.174164 5.190132 -8.309681 7.8183136 -12.406544c2.6281815 -4.1079063 5.1072845 -7.9176598 7.43734 -11.429256c2.3300247 -3.5226421 4.367424 -6.515232 6.112198 -8.977764c1.755806 -2.4625359 3.03125 -4.1244717 3.8263397 -4.9858065c0.66256714 -0.6625662 1.2257462 -1.20366 1.6895447 -1.6232862c0.47483063 -0.43066692 0.8779068 -0.7895565 1.2091904 -1.0766687c0.8503113 -0.73986435 1.275444 -1.4521227 1.275444 -2.136774c0 -0.9938488 -0.39753723 -1.5901575 -1.1926193 -1.7889271c-0.7950821 -0.19877005 -1.3748322 -0.29815483 -1.7392502 -0.29815483c-0.65153503 0 -2.131279 0.87789917 -4.439209 2.6336985c-2.296898 1.7447567 -5.5766144 4.649003 -9.839149 8.712738c-4.2625427 4.0526943 -9.701141 9.684502 -16.315765 16.895422c-7.8293457 8.558144 -14.675903 15.708332 -20.539639 21.450565c-5.863735 5.7311935 -10.937923 10.264244 -15.222525 13.599159c-4.284603 3.3349152 -7.9452972 5.6980667 -10.982082 7.0894547c-3.0367851 1.3803482 -5.6649656 2.0705109 -7.884572 2.0705109c-2.0870924 0 -3.5778723 -0.3036728 -4.4723406 -0.911026c-0.3084116 -0.21321869 -0.5636692 -0.44088745 -0.7657399 -0.6830063l0 0c0.09042406 0.0025863647 0.18003893 0.0038757324 0.26881313 0.0038757324c1.1705279 0 2.1975102 -0.4030609 3.0809455 -1.2091827c0.8944683 -0.81716156 1.3417025 -1.7723618 1.3417025 -2.865593c0 -1.3803482 -0.48036194 -2.3686752 -1.4410877 -2.964981c-0.9496927 -0.6073532 -1.844161 -0.911026 -2.6834044 -0.911026c-1.3692985 0 -2.7496614 0.50244904 -4.1410565 1.5073318c-1.3803629 1.0048904 -2.0705283 2.539833 -2.0705283 4.6048355c0 2.3741913 0.94969314 4.2956314 2.849047 5.7643204c1.9104185 1.4576416 4.604855 2.1864624 8.083343 2.1864624c3.3018131 0 7.0508614 -1.0490646 11.24711 -3.1471863c4.7483997 -2.407318 10.175936 -6.1839447 16.282633 -11.329872c6.1066666 -5.156967 12.958725 -11.898575 20.556206 -20.224812c2.460823 -2.7043953 4.7697525 -5.229515 6.926792 -7.5753593l0 0c-2.6994858 3.8202019 -5.1519623 7.515854 -7.35746 11.086956c-3.5668411 5.7643204 -6.3386 10.976498 -8.315243 15.636547c-1.976677 4.649002 -2.9649963 8.475319 -2.9649963 11.4789505c0 1.0821915 0.253994 1.9656143 0.76195526 2.650261c0.5190201 0.68465424 1.1594925 1.0269775 1.9214478 1.0269775c0.7067299 0 1.4742165 -0.29815674 2.3024292 -0.8944626c0.839241 -0.6073456 2.1643791 -1.9711304 3.9754143 -4.091339c7.100521 -8.282074 13.284508 -15.145149 18.551933 -20.58923c5.2674255 -5.455124 9.281502 -9.502293 12.042191 -12.141518c1.9922714 -1.905304 3.8756104 -3.702362 5.6499863 -5.3911743l0 0c-2.3053665 2.63702 -4.5862503 5.323017 -6.8426056 8.058002c-3.9975128 4.8477745 -7.6029816 9.662418 -10.816444 14.443932c-2.771759 4.196251 -4.621422 7.409691 -5.549011 9.640327c-0.91656494 2.2306366 -1.3748322 3.931221 -1.3748322 5.101761c0 1.7889252 0.6570358 3.2907333 1.971138 4.5054398c1.3251419 1.203659 3.2024307 1.8054962 5.631836 1.8054962c1.2588882 0 2.8048935 -0.23742676 4.637985 -0.7122574c1.8330994 -0.47483826 3.7324524 -1.1594925 5.698097 -2.053955c1.9656067 -0.8944626 3.7766418 -2.0373917 5.4330673 -3.4287796c0.41963196 -0.66256714 0.6294403 -1.3969116 0.6294403 -2.2030258c0 -1.0821991 -0.73435974 -1.9159317 -2.203041 -2.5011902c-1.7116547 1.6564178 -3.4067307 2.9097672 -5.0852203 3.7600632c-1.6674576 0.850296 -3.263153 1.5018158 -4.7870636 1.954567c-1.5128784 0.4417038 -2.672371 0.66256714 -3.478485 0.66256714c-0.8613434 0 -1.2920074 -0.16564178 -1.2920074 -0.49692535c0 -0.19876862 0.07178497 -0.48588562 0.21533203 -0.86133575c0.14354706 -0.37545013 0.5686798 -1.1208344 1.275444 -2.2361603c0.7177963 -1.126358 1.8496933 -2.8214264 3.395668 -5.08519c3.4343262 -4.9029846 7.106056 -10.098602 11.015213 -15.586857c3.9091568 -5.4882507 7.8569717 -10.888161 11.843422 -16.19973c3.9975052 -5.322609 7.8900986 -10.20351 11.67778 -14.6427c3.7987366 -4.4502316 7.304817 -8.094343 10.51828 -10.932333c0.9496918 -0.8171654 1.9545822 -1.5956802 3.0146942 -2.3355446c1.0711365 -0.73986435 1.60672 -1.5018148 1.60672 -2.2858515c0 -1.3251305 -0.69569397 -1.9876966 -2.0870895 -1.9876966zm0.99385834 39.853325c-3.6331024 0 -7.5035934 0.9165497 -11.6115265 2.749649c-4.1079254 1.8330994 -8.469849 5.4385605 -13.085739 10.816383c-2.3189926 2.6281738 -3.9864426 5.295002 -5.0023956 8.000477c-1.0048828 2.6944351 -1.5073471 5.245308 -1.5073471 7.6526337c0 2.4073257 0.6294403 4.3618927 1.8883286 5.8637085c1.2588806 1.4907684 3.1968918 2.2361603 5.814041 2.2361603c2.2527313 0 5.195633 -1.0877075 8.828735 -3.2631378c1.1478119 -0.6872711 2.2884445 -1.5261002 3.421898 -2.5164871l0 0c-0.050628662 0.36782074 -0.075927734 0.7373352 -0.075927734 1.1085358c0 3.1140594 2.1864777 4.671089 6.559433 4.671089c2.2748337 0 4.527565 -0.5742264 6.7582016 -1.7226715c2.2416992 -1.1484528 4.384018 -2.5784912 6.4269257 -4.2901154c2.042923 -1.7116318 3.931244 -3.4950333 5.664963 -5.350212c1.7447815 -1.8551865 3.2797241 -3.5612946 4.6048584 -5.1183243c1.0165863 -1.1930084 2.0619507 -2.4051895 3.136032 -3.6365433l0 0c0.5230713 0.43219757 1.1238556 0.6483002 1.8023529 0.6483002c0.29888916 0 0.612854 -0.041931152 0.9419098 -0.12581635c3.5889282 -4.0747757 6.377228 -7.00663 8.364929 -8.795555c1.9877167 -1.7999725 3.5613098 -2.9484177 4.72081 -3.445343c1.1595001 -0.5079689 2.1754303 -0.76195145 3.047821 -0.76195145c0.49691772 0 0.74539185 0.33128357 0.74539185 0.9938507c0 0.86133575 -0.16564941 1.8110123 -0.49693298 2.8490295c-0.33128357 1.0380173 -1.1981354 2.5784836 -2.600586 4.621395c-2.8269653 5.39991 -5.9465485 9.678986 -9.35878 12.837212c-3.4122314 3.158226 -6.482147 4.737343 -9.209717 4.737343c-0.20979309 0 -0.56318665 -0.1822052 -1.0601044 -0.5466156c-1.0159454 -0.69569397 -2.0042725 -1.043541 -2.9649963 -1.043541c-1.2147217 0 -2.2858582 0.39201355 -3.2134552 1.1760559c-0.93862915 0.77298737 -1.407959 1.689537 -1.407959 2.7496414c0 1.3582611 0.48588562 2.401802 1.4576416 3.1306229c0.9607239 0.72882843 2.4128418 1.0932388 4.3563995 1.0932388c2.539856 0 5.75885 -1.1594925 9.656937 -3.4784698c2.6970673 -1.6044846 5.07959 -3.938469 7.147583 -7.001953l0 0c-0.1381073 0.4906006 -0.20716858 0.9528351 -0.20716858 1.3867111c0 3.235527 0.911026 5.560028 2.7330933 6.973503c1.8220673 1.413475 3.8263397 2.1202087 6.0128174 2.1202087c2.4515076 0 4.9416504 -0.6736069 7.470459 -2.0208282c2.539856 -1.3472214 4.9747925 -2.9925919 7.304825 -4.9361115c2.3300476 -1.9435272 4.428192 -3.8815308 6.2944183 -5.8140182c1.8772736 -1.9324799 3.384613 -3.566803 4.5220337 -4.9029846c1.1374054 -1.3361664 2.2472076 -2.434929 3.3294067 -3.2962608l-3.6110077 -3.1140594c-0.8613434 0.8723755 -1.8331146 1.9766502 -2.9152985 3.3128319c-1.0821991 1.3251266 -2.4846344 2.8987198 -4.207321 4.7207794c-1.7226715 1.822052 -3.616516 3.6275406 -5.6815186 5.4164734c-2.0539703 1.7778854 -4.1079407 3.235527 -6.1618958 4.3729324c-2.0539703 1.126358 -3.9533386 1.689537 -5.6980896 1.689537c-0.60736084 0 -1.0435486 -0.08281708 -1.3085785 -0.24845886c-0.25398254 -0.17668152 -0.38098145 -0.49140167 -0.38098145 -0.94415283c0 -0.86133575 0.16012573 -1.893837 0.48036194 -3.097496c0.3202362 -1.2147064 0.9331207 -2.7938232 1.8386383 -4.737343c0.276062 -0.51901245 0.5687103 -1.043541 0.87789917 -1.5735931c0.3092041 -0.5410919 0.57974243 -1.0766754 0.8116455 -1.6067276c1.6674652 -2.9042435 3.511612 -5.504814 5.5324554 -7.801708c2.0318756 -2.2968903 3.947815 -4.0582123 5.7477875 -5.2839584c1.7999725 -1.2257462 3.2300262 -1.8386192 4.2901306 -1.8386192c0.16362 0 0.28370667 -0.16041946 0.36026 -0.48124695l0 0c-0.2896881 3.0704765 1.0810089 4.6057167 4.112076 4.6057167c0.98280334 0 1.965622 -0.37545013 2.9484406 -1.1263618c0.98280334 -0.7509117 1.4742126 -1.8993568 1.4742126 -3.445343c0 -1.1374054 -0.46931458 -2.2803307 -1.407959 -3.4287758c-0.9386444 -1.1594887 -2.539856 -1.7392349 -4.8036194 -1.7392349c-2.1864777 0 -4.39505 0.59630966 -6.625702 1.788929c-2.2306519 1.181572 -4.3398285 2.6889076 -6.32753 4.522011c-0.6602936 0.6089325 -1.1981049 1.1605949 -1.6134796 1.6549797l0 0c-0.074645996 -2.359909 -0.7680969 -4.2532616 -2.0803375 -5.680069c-1.3914032 -1.5238991 -3.263153 -2.2858505 -5.61528 -2.2858505c-1.6453705 0 -3.29628 0.35336685 -4.9526978 1.0601044c-1.6453705 0.7067375 -3.616516 2.087082 -5.913437 4.141037c-2.2858582 2.0429077 -5.317108 5.1790504 -9.09375 9.408432c-0.011138916 0.02752304 -0.021850586 0.05493164 -0.03213501 0.082221985l0 0l-1.8230591 -1.5398674c-1.3693085 1.501812 -2.672348 3.0091515 -3.9091644 4.522011c-1.2367859 1.5018158 -2.655777 3.1250992 -4.257004 4.869858c-1.5901642 1.7337112 -3.2797241 3.3956451 -5.0686493 4.9858093c-1.7889404 1.5791168 -3.5613098 2.8435135 -5.3171234 3.7931824c-1.7258148 0.9393616 -3.3435745 1.4141388 -4.8533173 1.4243469l0 0c9.918213E-5 -0.57424164 0.41420746 -1.5625076 1.2423172 -2.9648132c0.839241 -1.413475 2.291359 -3.345955 4.356392 -5.797447l19.413269 -23.405128l0 0c-3.1251068 0.47483826 -5.0686493 0.7288208 -5.830597 0.76194763c-0.7509308 0.033130646 -1.3472443 0.04969406 -1.7889404 0.04969406c-0.971756 0 -2.1533508 -0.21533203 -3.5447388 -0.6459999c-0.95536804 1.1849937 -1.7693329 2.2018776 -2.4419403 3.050644l0 0c-0.36747742 -0.96331406 -1.04982 -1.7482986 -2.0469666 -2.35495c-1.5680695 -0.96072006 -3.3625488 -1.441082 -5.383377 -1.441082z" fill-rule="evenodd"/><path fill="#990000" d="m230.39746 -0.108915485c-0.09854126 0 -0.19914246 0.0019441396 -0.3018036 0.0058324262c-1.8551941 0.04417138 -3.434311 0.61287326 -4.7373657 1.7061064c-1.2920074 1.0932335 -2.8324738 3.2962642 -4.621414 6.6090918c-0.39753723 0.79507923 -0.7233124 1.4245167 -0.9772949 1.8883123c-0.24295044 0.45275402 -0.56318665 1.0490627 -0.9607239 1.7889271c-0.39753723 0.73986435 -1.0104218 1.871748 -1.838623 3.395649c-0.8171692 1.523901 -2.0042725 3.7103672 -3.5613098 6.5594006c-0.7950897 1.468687 -1.192627 2.4680557 -1.192627 2.9981098c0 1.4245148 0.7288208 2.136774 2.1864777 2.136774c0.50798035 0 1.054596 -0.23741913 1.6398621 -0.7122593c0.5963135 -0.47484016 1.5791168 -1.4576435 2.9484253 -2.9484158c1.3803558 -1.4907742 3.5005646 -3.9201794 6.360672 -7.2882233c2.4846344 -2.915288 4.3398285 -5.0962334 5.565567 -6.542835c1.2257538 -1.4466019 2.0760498 -2.578486 2.5509033 -3.395649c0.47483826 -0.828207 0.71224976 -1.7005844 0.71224976 -2.617134c0 -0.99384856 -0.31471252 -1.8496629 -0.94415283 -2.567442c-0.5851135 -0.677497 -1.5280609 -1.016245 -2.8288422 -1.016245zm7.480713 72.697784c0 0 0 0 0 0l0 0c0 0 0 0 0 0zm-0.7261505 -30.900623c-1.3803406 0 -2.3631592 0.57974625 -2.9484253 1.7392349c-0.574234 1.1484451 -0.94970703 2.1643791 -1.1263733 3.047802c-1.1263733 1.4466019 -2.5729675 3.2465706 -4.3398285 5.39991c-1.766861 2.1422958 -3.4453583 4.1520767 -5.0355225 6.0293465c-1.5791168 1.8772736 -2.7496643 3.252098 -3.511612 4.1244736c-0.44172668 0.5410919 -0.95521545 1.1650047 -1.5404816 1.8717461c-0.574234 0.7067337 -0.7012329 1.4686813 -0.38098145 2.2858505c0.440979 0.7573395 0.88612366 1.1360092 1.3354492 1.1360092c0.06825256 0 0.13659668 -0.008735657 0.20503235 -0.02620697c0.5300598 -0.14355469 0.79507446 -0.6460037 0.79507446 -1.5073395c0 -7.4005127E-4 0.0014648438 -0.0011062622 0.0043640137 -0.0011062622c0.040527344 0 0.36483765 0.072143555 0.9729309 0.2164383c0.0970459 0.023025513 0.1950531 0.03453827 0.29405212 0.03453827c0.5656891 0 1.1633759 -0.37592316 1.793045 -1.1277695c0.9607239 -1.1594925 2.1147003 -2.5674438 3.461914 -4.223858c1.2906342 -1.5868492 2.631958 -3.2345047 4.0239716 -4.9429703l0 0c-0.08331299 0.68761444 -0.1436615 1.3800697 -0.18106079 2.0773735c-0.15460205 2.8711205 -0.30918884 5.0851936 -0.46380615 6.6422195c-0.5079651 4.240425 -1.5901642 7.564293 -3.246582 9.971619c-1.6564331 2.3962708 -3.4122314 4.091339 -5.2674255 5.08519c-1.8551941 0.98280334 -3.3459778 1.474205 -4.472336 1.474205c-0.5852661 0 -1.4355621 -0.077293396 -2.5509033 -0.23189545c-1.1153107 -0.16564178 -2.0042725 -0.4472351 -2.6668396 -0.84477234c-0.66256714 -0.40857697 -0.9938507 -0.94415283 -0.9938507 -1.60672c0 -0.6736069 0.29264832 -1.2864838 0.87789917 -1.838623c0.18127441 -0.17442322 0.31910706 -0.35520172 0.41351318 -0.54234314l0 0c0.035598755 0.032539368 0.07446289 0.0642395 0.11654663 0.09511566c0.49693298 0.3644104 1.1208496 0.5466156 1.8717651 0.5466156c1.1705322 0 2.291397 -0.33680725 3.3625336 -1.0104141c1.0711517 -0.6736069 1.6398621 -1.5625458 1.7061157 -2.6668243c0 -2.3521118 -1.2091827 -3.5281677 -3.6275635 -3.5281677c-0.8171692 0 -1.9380188 0.30919647 -3.3625488 0.92759705c-1.4245148 0.61839294 -2.749649 1.5846405 -3.9754028 2.8987198c-1.2368011 1.3030472 -1.8551941 2.9925919 -1.8551941 5.068634c0 2.385231 0.8061218 4.1189423 2.4183807 5.2011337c1.6012115 1.0821991 3.2907562 1.7668533 5.0686493 2.053955c1.7778778 0.29815674 3.2244873 0.4472351 4.3398285 0.4472351c4.063751 0 7.763092 -0.7122574 11.098022 -2.1367798c3.3349304 -1.4355545 5.4937897 -4.091339 6.4766235 -7.967346l0 0c-0.055221558 0.7067337 0.06625366 1.0711441 0.3644104 1.0932312c0.29815674 0.011039734 0.61286926 0.016563416 0.94415283 0.016563416c1.6122437 0 3.2245026 -0.5300522 4.8367615 -1.5901566c1.6122437 -1.0601044 3.1361542 -2.2858505 4.5717163 -3.6772385c1.4466095 -1.3913879 2.7220612 -2.7109985 3.8263397 -3.9588318c1.1042938 -1.2478333 2.335556 -2.589531 3.6938324 -4.0250854l-3.793213 -2.9318542c-0.9496765 1.3251343 -1.9159241 2.5674438 -2.8987427 3.7269363c-0.97177124 1.1484451 -2.1147003 2.3631516 -3.4287872 3.6441116c-1.3030701 1.2809601 -2.556427 2.3410645 -3.760086 3.180313c-1.1073303 0.77207947 -2.013733 1.1890182 -2.7192078 1.2508087l0 0c0.72972107 -1.3471527 1.0508423 -3.1444397 0.96339417 -5.3918457c-0.09938049 -1.822052 -0.3202362 -3.7158928 -0.66256714 -5.6814995c-0.33128357 -1.9656105 -0.63494873 -3.8042297 -0.911026 -5.5158615c-0.27607727 -1.7226677 -0.39753723 -3.1416664 -0.3644104 -4.256981c0 -0.39754105 0.011047363 -0.66256714 0.03312683 -0.7950821c0.03312683 -0.13251114 0.4085846 -0.6239166 1.126358 -1.474205c1.7226868 -1.9876976 2.6116333 -3.4895172 2.6668396 -4.5054474c0 -2.1864662 -1.1926117 -3.2797012 -3.5778656 -3.2797012z" fill-rule="evenodd"/><path fill="#990000" d="m361.87363 21.677156c0.5678711 0.8953495 0.85180664 2.3148804 0.85180664 4.2585907c0 3.445341 -0.77853394 6.6367016 -2.3355713 9.574072c-1.54599 2.9263344 -3.5502625 5.4937744 -6.0128174 7.7023277c-2.4515076 2.2085495 -4.7649536 3.8428802 -6.940399 4.9029846c-1.54599 -0.772995 -3.5723572 -1.1594887 -6.079071 -1.1594887c-1.9691467 0 -3.8546448 0.3025589 -5.6565857 0.9076767l0 0c2.3016663 -2.9925957 4.4687805 -5.6803894 6.5013733 -8.063389c2.8931885 -3.3790817 5.659424 -6.3219795 8.298676 -8.828686c2.6392212 -2.5067043 5.306061 -4.7704716 8.000519 -6.791298c0.8061218 -0.5742245 1.5846252 -1.1208401 2.3355408 -1.6398487c0.71466064 -0.4867859 1.0601501 -0.77443504 1.0365295 -0.86294174zm-24.773468 29.647066c0.06863403 0.00289917 0.14605713 0.0043525696 0.2322998 0.0043525696c-0.26605225 0 -0.34350586 -0.0014533997 -0.2322998 -0.0043525696zm120.518616 6.4801292l0 0c0 0 0 0 0 0l0 0c0 0 0 0 0 0zm-53.97809 4.215576l0 0l0 0c0 0 0 0 0 0zm-15.157135 10.231682c0 0 0 0 0 0l0 0c0 0 0 0 0 0zm40.549225 0c0 0 0 0 0 0l0 0c0 0 0 0 0 0zm-41.063477 -19.680725c0.5079651 0 0.97177124 0.1822052 1.3913879 0.5466156c0.43069458 0.35336685 0.6791382 1.1153183 0.74539185 2.2858543c0.15460205 2.407322 -0.42514038 4.969242 -1.7392273 7.6857605c-0.86135864 0.2871132 -1.9490662 1.1650124 -3.263153 2.6337013c-1.3030701 1.4576416 -1.9545898 3.4177322 -1.9545898 5.8802643l1.0435486 0c-2.4183655 1.7999725 -4.847809 3.5723343 -7.288269 5.317093c-1.4355469 1.0269775 -2.8379822 1.8386154 -4.207306 2.434929c-1.3692932 0.59630585 -2.523285 0.8944626 -3.461914 0.8944626c-0.9276123 0 -1.5846558 -0.30368042 -1.9711609 -0.911026c-0.37545776 -0.6184006 -0.5631714 -1.2478333 -0.5631714 -1.8883133c-0.110443115 -1.3251343 0.276062 -2.9539413 1.1594849 -4.886421c0.8944702 -1.9324799 2.5288086 -4.389496 4.903015 -7.3710403c3.3680725 -4.1852074 6.355133 -7.3323936 8.961243 -9.441563c2.617157 -2.1202126 4.6987305 -3.180317 6.2447205 -3.180317zm40.549225 0c0.5079651 0 0.97177124 0.1822052 1.3913879 0.5466156c0.43069458 0.35336685 0.6791382 1.1153183 0.74539185 2.2858543c0.15460205 2.407322 -0.42514038 4.969242 -1.7392273 7.6857605c-0.86135864 0.2871132 -1.9490662 1.1650124 -3.263153 2.6337013c-1.3030701 1.4576416 -1.9545898 3.4177322 -1.9545898 5.8802643l1.0435486 0c-2.4183655 1.7999725 -4.8477783 3.5723343 -7.288269 5.317093c-1.4355469 1.0269775 -2.8379822 1.8386154 -4.207306 2.434929c-1.3692932 0.59630585 -2.523285 0.8944626 -3.461914 0.8944626c-0.9276123 0 -1.5846558 -0.30368042 -1.9711609 -0.911026c-0.37542725 -0.6184006 -0.5631714 -1.2478333 -0.5631714 -1.8883133c-0.1104126 -1.3251343 0.276062 -2.9539413 1.1594849 -4.886421c0.8944702 -1.9324799 2.5288086 -4.389496 4.903015 -7.3710403c3.3680725 -4.1852074 6.3551636 -7.3323936 8.961243 -9.441563c2.617157 -2.1202126 4.6987305 -3.180317 6.2447205 -3.180317zm34.960236 27.795212c0 0 0 0 0 0l0 0c0 0 0 0 0 0zm-120.6304 -70.282234c-5.04657 0 -10.015839 0.7012167 -14.907806 2.1036463c-4.8809204 1.3913879 -9.463684 3.285222 -13.748322 5.6814995c-4.284607 2.3962784 -8.072296 5.134884 -11.363037 8.215815c-3.2907715 3.0809307 -5.8913574 6.36615 -7.801758 9.855663c-1.9104004 3.4895134 -2.865631 6.979027 -2.865631 10.468536c0 3.0036316 0.9828186 5.190098 2.9484558 6.5594025c1.976654 1.3582573 4.124481 2.0373878 6.4434814 2.0373878c4.085846 0 8.19928 -0.8668556 12.340332 -2.6005707c4.1410522 -1.733715 7.939789 -4.1520767 11.39621 -7.2550926c3.4563904 -3.1140594 6.24469 -6.796818 8.364929 -11.048283c2.1202087 -4.2625046 3.1803284 -8.922548 3.1803284 -13.980135c0 -1.7889271 -0.71224976 -2.6833897 -2.1367798 -2.6833897c-0.9607239 0 -1.5404968 0.29815292 -1.7392578 0.8944626c-0.19876099 0.585268 -0.37545776 1.2588749 -0.5300598 2.0208244c-0.5631714 4.1520805 -1.9490356 8.061218 -4.1576233 11.727413c-2.2085571 3.666195 -4.8643494 6.9072456 -7.9673767 9.723148c-3.09198 2.8159065 -6.2667847 5.0078926 -9.524445 6.575966c-3.246582 1.5680733 -6.156372 2.352108 -8.72934 2.352108c-1.5570374 0 -2.815918 -0.33680344 -3.7766418 -1.0104141c-0.9607239 -0.6736069 -1.4411011 -1.7281914 -1.4411011 -3.1637497c0 -2.053955 0.8503113 -4.461273 2.5509033 -7.221966c1.7116394 -2.7606926 4.063751 -5.5931587 7.056366 -8.497404c3.0036316 -2.9042435 6.371704 -5.582115 10.104187 -8.0336075c3.7324524 -2.4625359 7.531189 -4.4005394 11.396179 -5.8140144c2.2416992 -0.828207 4.632477 -1.4742079 7.1723022 -1.9380035c2.539856 -0.46379662 4.919586 -0.69569397 7.1391907 -0.69569397c4.085846 0 7.6581726 0.4582739 10.717041 1.3748236c3.0588684 0.9165487 4.908539 1.7005854 5.549011 2.352107c-3.3128357 1.7668419 -7.823822 4.9526787 -13.532959 9.55751c-5.709137 4.593788 -11.755066 10.545834 -18.137817 17.856144c-5.587677 6.2170715 -10.3637085 11.429256 -14.328064 15.636547c-3.9533386 4.2072906 -7.30484 7.608467 -10.054474 10.203514c-2.7386475 2.595047 -5.0520935 4.5440903 -6.9404297 5.8471375c-1.8772888 1.3030472 -3.5447388 2.1754227 -5.0023804 2.617134c-1.4466248 0.4306717 -2.9208374 0.6460037 -4.4226685 0.6460037c-2.4404602 0 -4.284607 -0.39201355 -5.53244 -1.1760559c-0.47509766 -0.30271912 -0.8597717 -0.6230545 -1.1539917 -0.9609833l0 0c0.025878906 1.7547607E-4 0.051635742 2.670288E-4 0.077301025 2.670288E-4c1.1705627 0 2.1920166 -0.39753723 3.064392 -1.1926193c0.8723755 -0.7950821 1.3085632 -1.7392349 1.3085632 -2.8324661c0 -1.413475 -0.46377563 -2.4128494 -1.3913879 -2.9981155c-0.9165344 -0.5852661 -1.8110046 -0.87789917 -2.6834106 -0.87789917c-1.3251343 0 -2.6944275 0.4306717 -4.10791 1.2920074c-1.4024353 0.86133575 -2.1036682 2.3521042 -2.1036682 4.4723206c0 2.517746 1.209198 4.604828 3.6275635 6.261238c2.418396 1.6564178 5.2508545 2.4846268 8.497467 2.4846268c1.9104004 0 3.8208008 -0.104911804 5.731201 -0.31472015c1.9104309 -0.20980835 3.8428955 -0.7067337 5.7974854 -1.4907761c5.4661865 -2.2527237 11.1753235 -5.9244385 17.12741 -11.015152c5.6891174 -4.8673325 11.528992 -11.257427 17.519653 -19.170288l0 0c0.2770691 0.5974846 0.77575684 1.1238708 1.4960938 1.5791702c1.1705322 0.7288246 2.6723328 1.093235 4.5054626 1.093235c1.6895447 0 3.401184 -0.16564178 5.134918 -0.49692535c1.6927185 -0.3214035 2.9852905 -0.6220169 3.877655 -0.901844l0 0c-0.04525757 0.14744186 -0.06790161 0.564003 -0.06790161 1.249691c0 3.4784698 -0.6791382 6.7250404 -2.037384 9.739719c-1.3582764 3.0146713 -3.1195984 5.6649323 -5.2839966 7.950783c-2.1643982 2.2858505 -4.45578 4.0582123 -6.8741455 5.317093c-2.418396 1.258873 -4.6766357 1.8883057 -6.7747803 1.8883057c-2.2637634 0 -3.6993408 -0.2815857 -4.3067017 -0.8447647c-0.60736084 -0.56318665 -0.91104126 -1.1098022 -0.91104126 -1.6398544c0 -1.3693008 0.6515503 -2.9097595 1.9545898 -4.6213913c1.3030396 -1.7116318 3.0698853 -3.3680496 5.3005676 -4.969246c2.2306213 -1.6122437 4.6490173 -2.9263382 7.255127 -3.9422607c2.6171265 -1.0159416 5.118347 -1.5239029 7.5035706 -1.5239029c2.0870972 0 3.1306458 -0.76195145 3.1306458 -2.2858543c0 -1.4576416 -0.87789917 -2.1864662 -2.6336975 -2.1864662c-3.3128662 0 -6.5760193 0.6294403 -9.789459 1.8883133c-3.202423 1.2478333 -6.1066895 2.8490334 -8.712799 4.803604c-2.6061096 1.9435272 -4.731842 4.0471725 -6.377228 6.310936c-1.6343384 2.2527237 -2.4515076 4.411583 -2.4515076 6.4765778c0 1.6453705 0.7288513 3.2410583 2.186493 4.787033c1.468689 1.54599 4.0195923 2.318985 7.6526794 2.318985c3.7655945 0 7.4042053 -0.634964 10.915802 -1.9048767c3.5116272 -1.2699127 6.669861 -2.9925842 9.474762 -5.1680145c2.815918 -2.1864624 5.0741577 -4.6931763 6.7747498 -7.5201187c1.700592 -2.8269424 2.5509033 -5.797447 2.5509033 -8.911507c0 -4.781513 -0.8668823 -7.9452667 -2.600586 -9.491253c2.0318604 -0.8282089 4.610382 -2.4514923 7.735504 -4.869858c3.136139 -2.4183655 5.6815186 -5.1459274 7.6361084 -8.182686c1.9545593 -3.047802 2.9318542 -6.200508 2.9318542 -9.458124c0 -4.8588142 -1.1815796 -8.40354 -3.5447388 -10.63418c1.1484375 -0.59630775 2.6392212 -1.1318836 4.472351 -1.6067219c1.8441467 -0.47483635 3.5005493 -0.81716156 4.969269 -1.0269756c1.468689 -0.20981216 2.2030334 -0.8723774 2.2030334 -1.9876976c0 -1.391387 -1.0766907 -2.087081 -3.2300415 -2.087081c-1.6343384 0 -3.5557861 0.29815388 -5.7643433 0.89446354c-2.1975098 0.5963087 -4.3508606 1.4024296 -6.4600525 2.4183645c-4.6048584 -3.5336847 -11.561829 -5.3005257 -20.87091 -5.3005257zm154.7927 -7.9673514c-2.7275696 0.220855 -4.257019 0.35336804 -4.5882874 0.39753938c-0.33129883 0.044171333 -0.5963135 0.06625652 -0.795105 0.06625652c-0.42697144 0.011043072 -0.822052 0.01656413 -1.1852417 0.01656413c-0.7263794 0 -1.3251343 -0.02208519 -1.7962952 -0.06625652c-0.6957092 -0.06625652 -1.54599 -0.1380341 -2.5509033 -0.2153337l-42.066742 60.069324l0 0l-1.8615723 -1.4488297c-1.0159607 1.0159378 -2.0208435 2.087082 -3.0147095 3.2134476c-0.9827881 1.126358 -2.1423035 2.330017 -3.478485 3.6109772c-1.3251343 1.2699203 -2.6281738 2.3355484 -3.9091492 3.1968842c-1.2809753 0.86133575 -2.3742065 1.2919998 -3.2797241 1.2919998c-0.028503418 0 -0.055847168 8.392334E-4 -0.08206177 0.0025253296l0 0c1.74469 -2.258461 3.2296753 -4.9040375 4.455017 -7.9367523c1.3361816 -3.2796974 1.9159241 -6.448971 1.7392578 -9.5078125c-0.16564941 -2.4956665 -1.0601196 -4.3177223 -2.6834106 -5.4661674c-1.6122437 -1.1594887 -3.4674377 -1.7392349 -5.5655823 -1.7392349c-3.1582336 0 -6.2115784 0.71777725 -9.160004 2.1533394c-2.9374084 1.4245148 -5.6152954 3.235527 -8.033661 5.433037c-2.4096985 2.1786308 -4.457611 4.4559326 -6.1437073 6.831909l0 0l-1.3930054 -1.0841522c-1.0159607 1.0159378 -2.0208435 2.087082 -3.0147095 3.2134476c-0.9828186 1.126358 -2.1423035 2.330017 -3.478485 3.6109772c-1.3251343 1.2699203 -2.6281738 2.3355484 -3.9091492 3.1968842c-1.2809753 0.86133575 -2.3742065 1.2919998 -3.2797241 1.2919998c-0.028503418 0 -0.055847168 8.392334E-4 -0.08206177 0.0025253296l0 0c1.7446594 -2.258461 3.2296753 -4.9040375 4.455017 -7.9367523c1.3361816 -3.2796974 1.9159241 -6.448971 1.7392578 -9.5078125c-0.16564941 -2.4956665 -1.0601196 -4.3177223 -2.6834106 -5.4661674c-1.6122437 -1.1594887 -3.4674377 -1.7392349 -5.5655823 -1.7392349c-3.1582336 0 -6.2115784 0.71777725 -9.160004 2.1533394c-2.9374084 1.4245148 -5.6152954 3.235527 -8.033661 5.433037c-2.418396 2.1864662 -4.472351 4.4723167 -6.1618958 6.8575554c-1.3030396 1.8551826 -2.5122375 4.1575966 -3.6275635 6.9072456c-1.1042786 2.7386093 -1.6012268 5.361267 -1.4907837 7.8679657c0.20980835 2.2748108 1.1208496 4.196251 2.7330933 5.7643204c1.623291 1.5570297 4.041687 2.3355484 7.255127 2.3355484c3.2355652 0 6.482147 -0.9607239 9.739777 -2.882164c3.2686768 -1.9214401 5.7146606 -3.9919586 7.3379517 -6.211548c0.08834839 0.6625595 1.2367859 0.9938431 3.445343 0.9938431c1.6012268 0 3.2245178 -0.51901245 4.8699036 -1.5570297c1.6453857 -1.0380173 3.1968994 -2.230629 4.654541 -3.5778503c0.5300598 -0.493927 1.0404358 -0.97982025 1.5310669 -1.4576797l0 0c-0.7715454 2.2800598 -1.1107483 4.477585 -1.0175781 6.59256c0.20980835 2.2748108 1.1208496 4.196251 2.7330933 5.7643204c1.623291 1.5570297 4.041687 2.3355484 7.255127 2.3355484c3.2355652 0 6.482147 -0.9607239 9.739777 -2.882164c3.2686768 -1.9214401 5.7146606 -3.9919586 7.3379517 -6.211548c0.08834839 0.6625595 1.2367859 0.9938431 3.4453735 0.9938431c1.6011963 0 3.2244873 -0.51901245 4.869873 -1.5570297c1.259491 -0.7945633 2.4639587 -1.679718 3.6134338 -2.6554642l0 0l-8.831177 12.610512c3.1361694 -0.8502884 5.057617 -1.3251266 5.7643433 -1.4245148c0.7067566 -0.11042023 1.2368164 -0.16564178 1.5901794 -0.16564178c1.0490723 0 2.2527466 0.14907837 3.6109924 0.4472351c3.0809631 -4.7152557 6.2888794 -9.502296 9.62381 -14.3611145c1.4963684 -2.1729126 3.1175232 -4.4982224 4.863434 -6.975918l0 0c0.21182251 0.35518265 0.5176697 0.665184 0.91748047 0.93001175c0.8503113 0.5521393 1.8993835 0.8282089 3.1472168 0.8282089c0.6515198 0 1.5791321 -0.09938812 2.7828064 -0.29815674c1.2146912 -0.20981216 2.3576355 -0.6128731 3.428772 -1.2091827c0.795105 0.27606583 1.192627 0.6625633 1.192627 1.1594925c0 0.044166565 -0.1104126 0.23189545 -0.3312683 0.563179c-0.20983887 0.32024384 -0.7564392 0.9331131 -1.6398621 1.8386154c-2.5067139 2.4404526 -4.223877 4.582756 -5.1514893 6.4268875c-0.9165344 1.8441467 -1.3748169 3.522644 -1.3748169 5.0354996c0 1.7226715 0.49691772 3.3073044 1.4907837 4.7539062c1.0048828 1.4355621 2.6944275 2.1533432 5.068634 2.1533432c2.4515076 0 4.941681 -0.6736069 7.4704895 -2.0208282c2.5398254 -1.3472214 4.9582214 -2.9925919 7.255127 -4.9361115c2.307953 -1.9435272 4.3950195 -3.8815308 6.261261 -5.8140182c1.8662415 -1.9324799 3.3680725 -3.566803 4.5054626 -4.9029846c1.1374207 -1.3361664 2.2361755 -2.4294052 3.2962952 -3.2796974l-3.4950562 -3.1471863c-0.88342285 0.88342285 -1.8662415 1.9932213 -2.9484253 3.3293953c-1.0821838 1.3251266 -2.4846497 2.8987198 -4.207306 4.7207794c-1.7226868 1.822052 -3.6165466 3.6275406 -5.681549 5.4164734c-2.053955 1.7778854 -4.10791 3.235527 -6.1618958 4.3729324c-2.053955 1.126358 -3.9698792 1.689537 -5.747772 1.689537c-0.36541748 0 -0.60513306 0.005722046 -0.7191162 0.017150879l0 0c0.04623413 -0.05722809 0.15344238 -0.1899414 0.32156372 -0.3981247c0.23190308 -0.2981491 0.57974243 -0.67913055 1.0435486 -1.1429214c3.1913757 -2.882164 5.2066956 -5.2287445 6.0459595 -7.0397644c0.8392334 -1.8110123 1.2588806 -3.4950333 1.2588806 -5.052063c0 -3.2203255 -1.3796997 -5.333206 -4.139099 -6.338646l0 0c0.2428894 -0.0667305 0.51278687 -0.23417664 0.8096924 -0.5023422c0.6956787 -0.6294365 1.3913879 -1.3637848 2.0870667 -2.2030296c2.6392517 -3.3459587 4.6821594 -5.5710716 6.128784 -6.67535c0.8624573 -0.6649399 1.6679688 -1.1316643 2.4165955 -1.4001732l0 0c-0.109191895 0.34710312 -0.17486572 0.7199631 -0.19699097 1.1185837c-0.09939575 1.3582611 0.32574463 2.4790993 1.2754517 3.3625221c0.9607239 0.8723793 2.0097656 1.308567 3.1471863 1.308567c1.2809753 0 2.4404602 -0.39201736 3.478485 -1.1760559c1.0490723 -0.7950783 1.5957031 -2.059475 1.6398621 -3.7931862c0.044189453 -1.6012039 -0.5963135 -2.9594612 -1.9214478 -4.0747795c-1.3140869 -1.1263618 -2.9594727 -1.6895447 -4.9361267 -1.6895447c-2.307953 0 -4.3729553 0.6018295 -6.195038 1.8054924c-1.8110046 1.2036629 -3.401184 2.6060944 -4.7704773 4.2072906c-1.3693237 1.5901604 -2.650299 3.0588493 -3.842926 4.406063c-0.85028076 0.9496803 -1.5073242 1.6288109 -1.9711304 2.0373878c-0.46380615 0.40858078 -0.82821655 0.67913055 -1.0932312 0.8116455c-1.0159607 -0.29815674 -2.3300476 -0.4472313 -3.9422913 -0.4472313c-0.8626709 0 -1.6974182 0.10464096 -2.504303 0.31391525l0 0c1.138092 -1.5962563 2.3207092 -3.2468834 3.5478516 -4.9518776l36.474426 -50.735962z" fill-rule="evenodd"/><path fill="#990000" d="m628.4819 30.358372c-1.7999878 0 -3.3459473 0.6460018 -4.6380005 1.9380035c-1.2809448 1.2809601 -1.9214478 2.722042 -1.9214478 4.323242c0 1.3140869 0.4251709 2.4238853 1.2754517 3.3293915c0.85028076 0.8944626 1.9656372 1.3416977 3.3460083 1.3416977c1.623291 0 3.1195679 -0.6073532 4.4888916 -1.8220558c1.38031 -1.2257462 2.0704956 -2.6889114 2.0704956 -4.3894997c0 -1.2699165 -0.4196167 -2.374195 -1.2588501 -3.3128262c-0.83929443 -0.9386368 -1.960144 -1.4079533 -3.3625488 -1.4079533zm-27.735535 -8.681215c0.5678711 0.8953495 0.85180664 2.3148804 0.85180664 4.2585907c0 3.445341 -0.7785034 6.6367016 -2.3355713 9.574072c-1.5459595 2.9263344 -3.550232 5.4937744 -6.0128174 7.7023277c-2.451477 2.2085495 -4.7649536 3.8428802 -6.9404297 4.9029846c-1.5459595 -0.772995 -3.5723267 -1.1594887 -6.0790405 -1.1594887c-1.9691162 0 -3.8546753 0.3025589 -5.656555 0.9076767l0 0c2.3016357 -2.9925957 4.46875 -5.6803894 6.501343 -8.063389c2.8931885 -3.3790817 5.659424 -6.3219795 8.298645 -8.828686c2.6392212 -2.5067043 5.3060913 -4.7704716 8.000549 -6.791298c0.8060913 -0.5742245 1.5846558 -1.1208401 2.3355713 -1.6398487c0.7145996 -0.4867859 1.0601196 -0.77443504 1.036499 -0.86294174zm115.451294 29.51518c0 0 0 0 0 0l0 0c0 0 0 0 0 0zm-140.2248 0.13188553c0.06866455 0.00289917 0.14611816 0.0043525696 0.23236084 0.0043525696c-0.26611328 0 -0.34350586 -0.0014533997 -0.23236084 -0.0043525696zm72.65216 6.362507c0 0 0 0 0 0l0 0c0 0 0 0 0 0zm118.61267 4.667675l0 0l0 0c0 0 0 0 0 0zm-84.108826 0.00976181l0 0l0 0c0 0 0 0 0 0zm-54.916077 0.001537323l0 0l0 0c0 0 0 0 0 0zm125.69342 -10.391129c0.66259766 0 0.99383545 0.39754105 0.99383545 1.1926193c0 1.6122398 -1.7116089 3.5226364 -5.1348877 5.7311935c-2.8948364 1.8736801 -6.397705 3.8665771 -10.508606 5.9786797l0 0c3.2435913 -4.2479286 6.0231323 -7.438961 8.338684 -9.573101c2.4073486 -2.219593 4.5109863 -3.3293915 6.310974 -3.3293915zm-44.176758 0.34784698c0.62939453 0 1.1484375 0.12699509 1.5570068 0.38097763c0.4196167 0.242939 0.62945557 0.57974243 0.62945557 1.0104103c0 0.8502922 -0.3092041 1.9269638 -0.9276123 3.2300072c-1.3803711 1.9766579 -2.5509033 3.6441116 -3.5115967 5.0023727c-0.9607544 1.3582573 -1.6619873 2.302414 -2.1036987 2.8324661c-1.4907837 1.7778854 -2.937378 3.368042 -4.3397827 4.7704773c-1.4024658 1.4024277 -2.7386475 2.710991 -4.008545 3.9256973c-2.9484253 2.650261 -5.295044 4.4447174 -7.039795 5.3833466c-1.744751 0.9275894 -3.1472168 1.3913879 -4.2073364 1.3913879c-0.5963135 0 -0.8944702 -0.33128357 -0.8944702 -0.9938507c0 -1.3361664 0.51898193 -3.0533142 1.5570679 -5.1514435c1.0490112 -2.109169 2.7772217 -4.621399 5.1845703 -7.5366898c4.2404785 -5.024456 7.994995 -8.652004 11.263672 -10.882637c3.2686768 -2.2416801 5.549011 -3.3625221 6.8410645 -3.3625221zm-54.367188 28.203716c0 0 0 0 0 0l0 0c0 0 0 0 0 0zm-73.641174 -70.442276c-5.04657 0 -10.015869 0.7012167 -14.907837 2.1036463c-4.8809204 1.3913879 -9.463684 3.285222 -13.748291 5.6814995c-4.284607 2.3962784 -8.072266 5.134884 -11.363037 8.215815c-3.2907715 3.0809307 -5.8913574 6.36615 -7.801758 9.855663c-1.9104004 3.4895134 -2.8656006 6.979027 -2.8656006 10.468536c0 3.0036316 0.9827881 5.190098 2.9484253 6.5594025c1.9766846 1.3582573 4.1244507 2.0373878 6.4434814 2.0373878c4.0858154 0 8.19928 -0.8668556 12.340332 -2.6005707c4.1410522 -1.733715 7.9397583 -4.1520767 11.396179 -7.2550926c3.456421 -3.1140594 6.244751 -6.796818 8.364929 -11.048283c2.1202393 -4.2625046 3.180359 -8.922548 3.180359 -13.980135c0 -1.7889271 -0.7122803 -2.6833897 -2.1367798 -2.6833897c-0.9607544 0 -1.5404663 0.29815292 -1.7392578 0.8944626c-0.1987915 0.585268 -0.37548828 1.2588749 -0.5300293 2.0208244c-0.5632324 4.1520805 -1.9490967 8.061218 -4.157654 11.727413c-2.2085571 3.666195 -4.864319 6.9072456 -7.967407 9.723148c-3.09198 2.8159065 -6.2667847 5.0078926 -9.524414 6.575966c-3.246582 1.5680733 -6.156372 2.352108 -8.729309 2.352108c-1.5570679 0 -2.815979 -0.33680344 -3.7766724 -1.0104141c-0.9607544 -0.6736069 -1.4411011 -1.7281914 -1.4411011 -3.1637497c0 -2.053955 0.8503418 -4.461273 2.5509033 -7.221966c1.7116089 -2.7606926 4.0637817 -5.5931587 7.0563354 -8.497404c3.003662 -2.9042435 6.371765 -5.582115 10.104187 -8.0336075c3.732483 -2.4625359 7.53125 -4.4005394 11.396179 -5.8140144c2.2416992 -0.828207 4.6324463 -1.4742079 7.1723633 -1.9380035c2.539795 -0.46379662 4.9195557 -0.69569397 7.13916 -0.69569397c4.0858154 0 7.658203 0.4582739 10.717041 1.3748236c3.058899 0.9165487 4.9085693 1.7005854 5.549011 2.352107c-3.3128052 1.7668419 -7.8237915 4.9526787 -13.532959 9.55751c-5.7091675 4.593788 -11.755066 10.545834 -18.137817 17.856144c-5.5876465 6.2170715 -10.3637085 11.429256 -14.328064 15.636547c-3.953308 4.2072906 -7.3048096 7.608467 -10.054504 10.203514c-2.7385864 2.595047 -5.052063 4.5440903 -6.9403687 5.8471375c-1.8773193 1.3030472 -3.5447998 2.1754227 -5.0024414 2.617134c-1.4465942 0.4306717 -2.9208374 0.6460037 -4.4226074 0.6460037c-2.4404907 0 -4.284668 -0.39201355 -5.5324707 -1.1760559c-0.47509766 -0.30271912 -0.8597412 -0.6230545 -1.1539917 -0.9609833l0 0c0.025878906 1.7547607E-4 0.051635742 2.670288E-4 0.07733154 2.670288E-4c1.1705322 0 2.1919556 -0.39753723 3.064331 -1.1926193c0.8724365 -0.7950821 1.3085938 -1.7392349 1.3085938 -2.8324661c0 -1.413475 -0.46380615 -2.4128494 -1.3913574 -2.9981155c-0.91656494 -0.5852661 -1.8110352 -0.87789917 -2.6834106 -0.87789917c-1.3251343 0 -2.694458 0.4306717 -4.107971 1.2920074c-1.4024048 0.86133575 -2.1036377 2.3521042 -2.1036377 4.4723206c0 2.517746 1.2091675 4.604828 3.6275635 6.261238c2.418396 1.6564178 5.2508545 2.4846268 8.497437 2.4846268c1.9104004 0 3.8208618 -0.104911804 5.731262 -0.31472015c1.9104004 -0.20980835 3.8428955 -0.7067337 5.7974854 -1.4907761c5.4661865 -2.2527237 11.175293 -5.9244385 17.12738 -11.015152c5.689148 -4.8673325 11.528992 -11.257427 17.519653 -19.170288l0 0c0.27703857 0.5974846 0.77575684 1.1238708 1.4960938 1.5791702c1.1705322 0.7288246 2.6723633 1.093235 4.505432 1.093235c1.6895752 0 3.401184 -0.16564178 5.1349487 -0.49692535c1.692749 -0.3214035 2.9852905 -0.6220169 3.8776855 -0.901844l0 0c-0.045288086 0.14744186 -0.06793213 0.564003 -0.06793213 1.249691c0 3.4784698 -0.6791382 6.7250404 -2.0374146 9.739719c-1.3582764 3.0146713 -3.1195679 5.6649323 -5.2839966 7.950783c-2.1643677 2.2858505 -4.4557495 4.0582123 -6.8741455 5.317093c-2.418335 1.258873 -4.6766357 1.8883057 -6.7747803 1.8883057c-2.263733 0 -3.6993408 -0.2815857 -4.3066406 -0.8447647c-0.60736084 -0.56318665 -0.9110718 -1.1098022 -0.9110718 -1.6398544c0 -1.3693008 0.6515503 -2.9097595 1.9545898 -4.6213913c1.3030396 -1.7116318 3.0698853 -3.3680496 5.300537 -4.969246c2.2306519 -1.6122437 4.649048 -2.9263382 7.255127 -3.9422607c2.6171875 -1.0159416 5.118347 -1.5239029 7.503601 -1.5239029c2.0870972 0 3.1306763 -0.76195145 3.1306763 -2.2858543c0 -1.4576416 -0.8779297 -2.1864662 -2.633728 -2.1864662c-3.3128662 0 -6.575989 0.6294403 -9.78949 1.8883133c-3.2023926 1.2478333 -6.1066284 2.8490334 -8.712769 4.803604c-2.606079 1.9435272 -4.7318115 4.0471725 -6.3771973 6.310936c-1.6343384 2.2527237 -2.451538 4.411583 -2.451538 6.4765778c0 1.6453705 0.7288208 3.2410583 2.1864624 4.787033c1.468689 1.54599 4.0195923 2.318985 7.65271 2.318985c3.765564 0 7.404175 -0.634964 10.9158325 -1.9048767c3.5115967 -1.2699127 6.669861 -2.9925842 9.474731 -5.1680145c2.815918 -2.1864624 5.0741577 -4.6931763 6.7747803 -7.5201187c1.7005615 -2.8269424 2.5508423 -5.797447 2.5508423 -8.911507c0 -4.781513 -0.8668213 -7.9452667 -2.600586 -9.491253c2.0319214 -0.8282089 4.6104126 -2.4514923 7.7355347 -4.869858c3.1361694 -2.4183655 5.6815186 -5.1459274 7.6361084 -8.182686c1.9545898 -3.047802 2.9318237 -6.200508 2.9318237 -9.458124c0 -4.8588142 -1.1815186 -8.40354 -3.5447388 -10.63418c1.1484985 -0.59630775 2.6392822 -1.1318836 4.472351 -1.6067219c1.8441772 -0.47483635 3.5006104 -0.81716156 4.9692993 -1.0269756c1.468689 -0.20981216 2.203003 -0.8723774 2.203003 -1.9876976c0 -1.391387 -1.0766602 -2.087081 -3.2299805 -2.087081c-1.6343384 0 -3.5557861 0.29815388 -5.7643433 0.89446354c-2.1975708 0.5963087 -4.350891 1.4024296 -6.460083 2.4183645c-4.6048584 -3.5336847 -11.561829 -5.3005257 -20.87091 -5.3005257zm238.92181 78.81439c0 0 0 0 0 0l0 0c0 0 0 0 0 0zm-19.843384 12.785309c-1.1484375 1.413475 -3.1195679 3.6220322 -5.913391 6.625656c-2.7938232 3.0036316 -5.206665 5.300522 -7.2385864 6.890686c-2.0429077 1.6011963 -3.8760376 2.6999512 -5.4993286 3.296257c-1.623291 0.6073532 -3.2686768 0.91103363 -4.936157 0.91103363c-0.57421875 0 -0.9772949 -0.06626129 -1.2091675 -0.19876862c-0.24291992 -0.13251495 -0.28710938 -0.19877625 -0.13250732 -0.19877625c0 -1.4355545 0.9717407 -3.0698776 2.9152832 -4.9029846c1.9324951 -1.822052 5.201172 -3.969864 9.80603 -6.443451c4.6048584 -2.4735794 8.674133 -4.466797 12.207825 -5.9796524zm-51.31598 -99.683c-5.300537 7.4649057 -10.131775 14.294853 -14.493652 20.489843c-4.3619385 6.1949883 -8.348389 11.904095 -11.959412 17.12732c-2.876892 4.1525993 -5.15448 8.010803 -6.8328247 11.574612l0 0c-0.41345215 -0.9677048 -1.1560059 -1.7228928 -2.2277832 -2.265564c-1.744751 -0.88341904 -3.4232788 -1.3251305 -5.0355225 -1.3251305c-3.4674683 0 -7.310364 0.9165497 -11.528687 2.749649c-4.218384 1.8330994 -8.641052 5.4385605 -13.267944 10.816383c-0.35083008 0.39780426 -0.68707275 0.7966385 -1.0088501 1.1964912l-1.84021 -1.494648c-1.0269775 1.1374016 -2.0981445 2.401802 -3.21344 3.7931862c-1.1043091 1.3913879 -2.4680786 2.9815521 -4.0913696 4.7704773c-1.623291 1.7778854 -3.4067383 3.5115967 -5.350281 5.2011414c-1.9324951 1.6784973 -3.8760376 3.0533218 -5.8305664 4.124466c-1.9545898 1.0601044 -3.8042603 1.5901566 -5.5490723 1.5901566c-0.75286865 0 -1.3834839 0.059066772 -1.8916626 0.17719269c0.057800293 -0.11023712 0.14178467 -0.24659729 0.25183105 -0.40908813c0.23187256 -0.3423233 1.1650391 -1.3803406 2.7993774 -3.1140594c3.7214355 -4.0526886 6.6256714 -7.4759445 8.712769 -10.269768c2.0870972 -2.804863 3.583374 -5.2011375 4.4888916 -7.188835c0.91656494 -1.9876976 1.3969116 -3.7545357 1.4411011 -5.3005257c0.044189453 -1.656414 -0.51904297 -3.1747932 -1.6895752 -4.5551376c-1.1594849 -1.3913879 -3.064392 -2.087082 -5.7146606 -2.087082c-1.1815796 0 -2.451477 0.19876862 -3.8097534 0.59630966c-1.3582764 0.38649368 -2.8987427 1.153965 -4.621399 2.302414c-2.376709 1.5879974 -5.2419434 3.9834557 -8.595825 7.186363c0.5718384 -0.8987274 0.9800415 -1.6874542 1.2247314 -2.3661957c0.35333252 -0.9496765 0.552124 -1.7557983 0.5963135 -2.4183655c0.24291992 -2.3079376 -0.336792 -3.7655792 -1.7392578 -4.3729324c-1.4024658 -0.61839294 -2.694458 -0.92759323 -3.8760376 -0.92759323c-1.6453857 0 -3.2576294 0.5852661 -4.836731 1.7557983c-1.5791016 1.1594925 -3.0533447 2.539833 -4.4226685 4.141037c-1.3693237 1.5901566 -2.6558228 3.15271 -3.859436 4.6876526c-1.2036743 1.5238991 -2.263794 2.7772484 -3.180359 3.7600594c-0.13214111 0.13211441 -0.23840332 0.2719574 -0.31878662 0.4195137l0 0l-1.7186279 -1.5458755c-0.93859863 0.93863297 -1.9932251 2.0815582 -3.1637573 3.4287758c-1.1594849 1.336174 -2.6281738 2.920807 -4.406067 4.7539062c-1.7778931 1.8220596 -3.6938477 3.6109848 -5.7478027 5.366783c-2.0429077 1.7557983 -4.041687 3.1913528 -5.996216 4.306679c-1.9435425 1.1153183 -3.671753 1.6729736 -5.1846313 1.6729736c-0.48590088 0 -0.96624756 -0.016563416 -1.4411011 -0.049690247c-0.46380615 -0.03312683 -0.6625366 -0.049690247 -0.5963135 -0.049690247c0 -0.4306717 0.27056885 -1.1484528 0.8116455 -2.1533356c0.55218506 -1.0048904 1.6398926 -2.5784836 3.2631836 -4.720787c1.623291 -2.1422958 3.9588623 -5.046547 7.006653 -8.712738c3.058899 -3.666195 7.8901367 -9.386349 14.493713 -17.160446l0 0c-2.937378 0.3644104 -4.533081 0.55765915 -4.7870483 0.57974625c-0.24298096 0.011043549 -0.62945557 0.016563416 -1.1595459 0.016563416c-0.61834717 0 -1.4741821 -0.016563416 -2.5674438 -0.04969406c-1.0932007 -0.03312683 -2.0484009 -0.09386444 -2.8656006 -0.1822052c-4.781555 5.5765953 -8.536072 10.076523 -11.263672 13.499775c-2.7165527 3.4122124 -4.7980957 6.2170753 -6.24469 8.414585c-1.4576416 2.1864624 -2.4625854 4.008522 -3.0147095 5.4661636c-0.552124 1.4466095 -0.82818604 2.7662125 -0.82818604 3.9588318c0 1.8551865 0.8116455 3.2741776 2.4349365 4.256981c1.623291 0.9717636 3.5944214 1.4576492 5.913391 1.4576492c2.4404907 0 4.891968 -0.634964 7.354553 -1.9048767c2.4735718 -1.2809677 4.8256836 -2.843521 7.0563354 -4.6876526c2.2416992 -1.8441467 4.290161 -3.715889 6.1453247 -5.615242c1.8552246 -1.9104004 3.395691 -3.577858 4.62146 -5.0023727c0.8692627 -1.008995 1.6976318 -1.9552612 2.4851074 -2.838791l0 0c0.5633545 0.41768646 1.1251221 0.6265335 1.6853027 0.6265335c0.42181396 0 0.84265137 -0.118392944 1.2626343 -0.35518646c1.0159302 -1.2478333 2.114685 -2.6060944 3.2962646 -4.0747757c1.192627 -1.4686852 2.3963013 -2.8821602 3.611023 -4.2404213c1.225769 -1.3693008 2.2471924 -2.434925 3.064392 -3.1968803c0.010986328 -0.010299683 0.021972656 -0.0205307 0.03289795 -0.030693054l0 0c-0.23638916 0.36997223 -0.5455322 0.8384781 -0.92736816 1.4055176c-0.7288208 1.0821953 -1.8441772 2.6833916 -3.3460083 4.8036003c-1.501831 2.1202126 -3.5005493 4.947155 -5.996216 8.480839c-2.4846802 3.5226364 -6.3827515 9.126846 -11.694336 16.812607c3.0809326 -0.772995 4.9747314 -1.2091827 5.6815186 -1.3085709c0.71777344 -0.11042023 1.6342773 -0.16564178 2.7496338 -0.16564178c0.9607544 0 2.142334 0.13803864 3.5447388 0.41410828l5.201172 -6.840996c4.891968 -5.996216 9.21521 -10.827423 12.969788 -14.493622c3.7545776 -3.6772385 6.9017944 -6.388233 9.44165 -8.132992c1.4244995 -0.9496765 2.6171265 -1.6122398 3.5778198 -1.9876976c0.9607544 -0.37545395 1.6730347 -0.563179 2.1367798 -0.563179c0.46380615 0 0.7122803 0.022083282 0.74542236 0.06625748c0.03314209 0.03312683 0.049682617 0.07729721 0.049682617 0.13251114c0 0.49692535 -0.4472046 1.4742088 -1.3416748 2.9318542c-0.88342285 1.4576416 -2.6061401 3.6220207 -5.16803 6.493141c-3.2797241 3.6882782 -5.7091675 6.636696 -7.288269 8.845253c-1.5681152 2.2085571 -2.5785522 3.9974823 -3.03125 5.366783c-0.44171143 1.3693008 -0.66259766 2.5840073 -0.66259766 3.6441116c0 1.7999649 0.8723755 3.1527023 2.6171265 4.0582123c1.744812 0.9055023 3.6552124 1.3582611 5.731262 1.3582611c2.539856 0 5.0355225 -0.6294403 7.4869995 -1.8883133c2.4625854 -1.2699127 4.770508 -2.8269424 6.923889 -4.671089c2.1643677 -1.8551865 4.1244507 -3.7324524 5.880249 -5.6318054c0.46557617 -0.50657654 0.9094238 -0.99606323 1.331543 -1.468483l0 0c-0.56744385 1.9279327 -0.85113525 3.7812119 -0.85113525 5.559822c0 2.4294052 0.6791382 4.389496 2.0373535 5.880272c1.3582764 1.4797363 3.3128662 2.2195969 5.8637695 2.2195969c2.330017 0 5.1901245 -1.0766678 8.580261 -3.230011c1.2540894 -0.8006439 2.5429077 -1.8181229 3.866516 -3.052452l0 0c-0.14074707 0.45924377 -0.21484375 0.89146423 -0.22241211 1.2966537c0 1.4797363 0.5079956 2.6833954 1.5239258 3.6109848c1.0269775 0.9165497 2.5564575 1.3748245 4.588318 1.3748245c2.606079 0 5.173584 -0.6294403 7.7023315 -1.8883133c2.539856 -1.258873 4.92511 -2.810379 7.1557617 -4.6545258c2.2416992 -1.8441391 4.279114 -3.7214127 6.1121826 -5.6318054c0.4185791 -0.43360138 0.8206787 -0.85440826 1.2062378 -1.262413l0 0c-0.22558594 1.1646881 -0.32946777 2.2756653 -0.31176758 3.3329315c0.07733154 2.8269424 0.94970703 5.2508316 2.6171875 7.271652c1.6674194 2.0208282 4.372925 3.0312424 8.116455 3.0312424c3.489502 0 6.7471313 -0.6294403 9.772888 -1.8883133c3.0256958 -1.258873 5.758789 -2.8159027 8.19928 -4.671089c2.4404907 -1.8551788 4.5828247 -3.7490158 6.426941 -5.6814957c1.0230713 -1.0718079 1.9403687 -2.0663757 2.751892 -2.9837112l0 0c0.19036865 0.20973206 0.4942627 0.31459808 0.9116821 0.31459808c0.4375 0 0.9996948 -0.1151886 1.6866455 -0.3455658c-0.41864014 -0.57774353 -0.54522705 -0.8666153 -0.37982178 -0.8666153c0.052734375 0 0.13519287 0.02936554 0.24731445 0.08810425c0.12145996 0.062149048 0.25164795 0.09322357 0.3904419 0.09322357c0.4038086 0 0.8810425 -0.2629776 1.4316406 -0.78891754c0.7509155 -0.7067337 1.805481 -1.8551865 3.1637573 -3.445343c1.9987183 -2.2748108 3.644104 -4.400543 4.936157 -6.3771935c1.2919922 -1.9766579 2.053955 -3.1968803 2.2858276 -3.660675c0.62945557 0.27606583 2.1920166 0.7067337 4.687683 1.2920036c2.5067139 0.57421875 4.1521606 0.9275894 4.936157 1.0601044c-4.494446 3.0036316 -8.779053 6.4710617 -12.853821 10.402283c-4.0637817 3.931221 -6.095642 7.4483414 -6.095642 10.551353c0 2.031868 0.7509155 3.660675 2.2526855 4.886421c1.501831 1.2147064 3.368042 1.8220596 5.598755 1.8220596c2.5288086 0 5.0023804 -0.58527374 7.4207764 -1.7557983c2.418335 -1.1705322 4.715271 -2.6281738 6.890686 -4.3729324c2.175476 -1.755806 4.168701 -3.5668182 5.9796753 -5.4330444c0.2915039 -0.30030823 0.5767822 -0.5956726 0.85583496 -0.88610077l0 0c-0.49597168 0.97328186 -0.8695679 1.8428802 -1.1208496 2.6087723c-0.46380615 1.3803482 -0.6956787 2.7551727 -0.6956787 4.1244736c0 3.8097534 2.385254 5.71463 7.1557617 5.71463c2.9263306 0 5.9907227 -0.7564316 9.193115 -2.269287c2.4747314 -1.1690903 4.850525 -2.5327148 7.1274414 -4.090866l0 0c-1.3477783 1.5616379 -2.6192627 3.1074677 -3.8145752 4.6374817c-3.3018188 4.2293777 -6.239258 7.91214 -8.812195 11.048279c-8.889465 3.73246 -15.940247 7.045288 -21.152527 9.938484c-5.212158 2.904251 -8.955688 5.5489883 -11.23053 7.934227c-2.2748413 2.3852386 -3.4122314 4.682129 -3.4122314 6.8906784c0 1.203659 0.51904297 2.324501 1.5570679 3.362526c1.0379639 1.0380173 2.4901123 1.5570374 4.3563843 1.5570374c2.9263306 0 5.7091064 -0.3644104 8.348328 -1.0932388c2.6392822 -0.71778107 5.3779297 -2.0705261 8.215881 -4.05822c2.8380127 -1.9876938 5.996277 -4.814644 9.474731 -8.480843c3.489502 -3.6661987 7.503601 -8.370415 12.042175 -14.112648c3.8208008 -1.7999649 7.194397 -3.5226364 10.120789 -5.168007c2.9263306 -1.6453781 5.543457 -3.3293915 7.8514404 -5.052063c2.3189697 -1.7116318 4.4888916 -3.5612946 6.5097046 -5.5489883c2.0318604 -1.9987411 4.1410522 -4.251465 6.3275757 -6.758171c2.1864624 -2.5067062 5.0023804 -5.830574 8.447754 -9.971611l-3.5281982 -2.8655968c-3.8428955 4.682125 -6.945923 8.403538 -9.309082 11.164227c-2.3521118 2.749649 -4.6932373 5.1680145 -7.0232544 7.2550964c-2.3189697 2.0760422 -4.996887 4.063736 -8.03363 5.963089c-2.796814 1.7556381 -4.7350464 2.987648 -5.814636 3.6960144l0 0c0.5303345 -0.51291656 1.8722534 -2.19767 4.025696 -5.054268c2.7055054 -3.5888977 5.626343 -7.509079 8.762451 -11.760544l19.860535 -24.498363l0 0c-3.0809326 0.47483826 -4.98584 0.7288208 -5.7146606 0.76195145c-0.7178345 0.03312683 -1.2810059 0.049690247 -1.6895752 0.049690247c-0.48590088 0 -0.9883423 -0.038646698 -1.5073242 -0.11594772c-0.5079956 -0.077301025 -1.2478027 -0.20429611 -2.2196045 -0.38097763c-1.7116699 2.1422958 -3.583435 4.433666 -5.6152954 6.874119c-2.020813 2.4404526 -4.7263184 5.5158615 -8.116455 9.226231c-2.1864624 2.672348 -4.6987305 5.2784424 -7.536743 7.8182755c-2.8269043 2.5287857 -5.7366943 4.599304 -8.729309 6.211548c-2.9926147 1.6122437 -5.847168 2.4183655 -8.563721 2.4183655c-0.3092041 0 -0.54663086 -0.02760315 -0.7122803 -0.08281708c-0.15460205 -0.055221558 -0.23187256 -0.25951385 -0.23187256 -0.6128769c0 -0.5852661 0.4196167 -1.5239029 1.2588501 -2.8159027c0.8392334 -1.3030472 1.9324951 -2.755165 3.2797241 -4.356369c1.347229 -1.6122437 2.6779175 -3.1416702 3.9920044 -4.5882645c1.3251343 -1.4576492 2.3686523 -2.6116104 3.1306152 -3.4619064c1.5680542 -1.6674576 2.9042358 -3.1527061 4.008545 -4.455757c1.104248 -1.3140907 2.330017 -2.6778755 3.677246 -4.091343c1.3582764 -1.4134712 4.3950806 -4.234894 9.110352 -8.464275l0 0c-4.1189575 0.45275116 -6.8796387 0.67913055 -8.2821045 0.67913055c-0.7067261 0 -1.3085938 -0.022083282 -1.805542 -0.06625748c-0.48583984 -0.055210114 -1.5073242 -0.15459824 -3.064331 -0.29815292c-2.8380127 2.8821602 -5.3392334 5.427517 -7.503601 7.6360664c-2.1533813 2.1975098 -4.014099 4.2569847 -5.5821533 6.178425c-0.17523193 0.24676514 -0.34747314 0.4899521 -0.51660156 0.72956085l0 0l-1.7692871 -1.5080757c-1.2036133 1.2699165 -2.4349365 2.6060867 -3.6937866 4.008526c-1.2478638 1.4024277 -2.7276 2.9760208 -4.439209 4.7207794c-1.7116699 1.7447586 -3.5281982 3.423256 -5.449646 5.0354996c-1.9104004 1.6122437 -3.7435303 2.920807 -5.4993286 3.9256973c-1.7557983 0.9938507 -3.307312 1.4907761 -4.654541 1.4907761c-0.1987915 0 -0.29815674 -0.24846649 -0.29815674 -0.7453842c0 -0.9165573 0.46929932 -2.2251205 1.407959 -3.925705c0.93859863 -1.7005844 2.2140503 -3.5723343 3.826355 -5.615242c1.6122437 -2.053955 3.3569946 -4.041649 5.234253 -5.963093c1.8773193 -1.9214401 3.6993408 -3.555767 5.4661865 -4.9029846c1.3693237 -1.093235 2.054016 -2.0594788 2.054016 -2.8987274c0 -0.47483444 -0.20983887 -0.9662361 -0.62945557 -1.474205c-0.41967773 -0.51900864 -1.1705933 -0.8061218 -2.2527466 -0.86133575c-0.8723755 -0.05521393 -2.1036377 -0.2042923 -3.6938477 -0.4472313c-1.5901489 -0.25398254 -3.2023926 -0.5466194 -4.836731 -0.877903c-1.623291 -0.34232712 -2.9594727 -0.5300522 -4.008545 -0.563179c-1.0490723 -0.03312683 -1.2754517 -0.04969406 -0.6791382 -0.04969406c0 -0.6625633 0.1987915 -1.231266 0.5963135 -1.7061043c0.35339355 -0.5852661 0.7122803 -1.203659 1.0766602 -1.8551826c0.37548828 -0.66256714 0.5632324 -1.5128593 0.5632324 -2.5508804c0 -2.5840034 -1.407959 -3.876007 -4.223877 -3.876007c-1.9766846 0 -3.5558472 0.8502884 -4.7374268 2.5508766c-1.1704712 1.6895409 -1.5845947 3.5557709 -1.2423096 5.5986786c0.29815674 1.3803444 0.8282471 2.3189812 1.59021 2.8159065c-0.24298096 0.5079651 -0.9938965 1.684021 -2.2527466 3.52816c-1.2589111 1.8330956 -2.7055054 3.7766228 -4.3398438 5.830578c-0.07940674 0.09913254 -0.15765381 0.19655228 -0.23461914 0.29226685l0 0l-1.7199707 -1.385498c-1.0932007 0.9938469 -2.1975098 2.1864662 -3.3128052 3.5778542c-1.1043091 1.3913879 -2.4956665 2.9870682 -4.1741943 4.787033c-1.6785278 1.7889328 -3.611023 3.5447311 -5.7974854 5.2674026c-2.1864624 1.7226639 -4.566223 3.1361465 -7.13916 4.2404175c-2.5619507 1.1042709 -5.2894897 1.6564102 -8.182739 1.6564102c-1.0380249 0 -1.9104004 -0.28710938 -2.6171875 -0.86133575c-0.7067261 -0.5852661 -1.0601196 -1.4079514 -1.0601196 -2.4680557c0 -0.9055023 0.17669678 -1.954567 0.53009033 -3.1471863c0.35339355 -1.203659 0.97180176 -2.5122223 1.8551636 -3.9256973c6.3165283 -2.0981216 11.3741455 -4.174164 15.172852 -6.228119c3.8097534 -2.053955 6.553894 -4.0526924 8.232422 -5.9962196c1.6895752 -1.9435272 2.4680786 -3.7766266 2.3355713 -5.4992943c-0.055236816 -1.3140869 -0.6571045 -2.434929 -1.805542 -3.3625221c-1.1373901 -0.9386368 -2.9042358 -1.4079514 -5.300537 -1.4079514c-2.2748413 0 -4.86438 0.53557205 -7.7686157 1.60672c-2.8931885 1.0711517 -5.8250732 2.7330856 -8.795593 4.9858093c-2.6242065 1.9803505 -5.084717 4.4691772 -7.3814087 7.4664726l-0.9338379 -0.7248688c-1.0601196 1.0601044 -2.1588745 2.2858505 -3.2962646 3.6772385c-1.1373901 1.3803482 -2.5288086 2.964981 -4.1741943 4.7539062c-1.6343384 1.7889328 -3.428772 3.522644 -5.383362 5.2011414c-1.9435425 1.678505 -3.9423218 3.0478058 -5.996277 4.10791c-1.911499 0.981575 -3.7746582 1.5039368 -5.5894775 1.5670853l0 0c0.1060791 -0.57321167 0.5391846 -1.4489441 1.2993774 -2.6271896c0.88342285 -1.3803482 2.2747803 -3.3349152 4.1741333 -5.8637085l49.311707 -69.138725l0 0c-3.1471558 0.3754542 -4.98584 0.5631809 -5.515869 0.5631809c-0.73986816 0 -1.4244995 -0.07177758 -2.053955 -0.21533394c-0.6184082 -0.14355612 -1.5073242 -0.4637959 -2.66687 -0.96072006z" fill-rule="evenodd"/></g></svg>